# xmcd CD database file
#
# Track frame offsets:
#	150
#	21957
#	57211
#	83915
#	110789
#	146826
#	173626
#	213773
#	243369
#
# Disc length: 3606 seconds
#
# Revision: 0
# Processed by: cddbd v1.5.1PL2 Copyright (c) Steve Scherf et al.
# Submitted via: CDex 1.51
#
DISCID=790e1409
DTITLE=Carmen Lundy - Live at the Madrid Disk 1
DYEAR=2005
DGENRE=Jazz
TTITLE0=In Love Again
TTITLE1=One More river To Cross
TTITLE2=Something to Believe In
TTITLE3=Better Days
TTITLE4=Where'd It Go
TTITLE5=Wild Child
TTITLE6=Afrasia!
TTITLE7=Happy New Year
TTITLE8=Long Journey Home
EXTD=YEAR: 2005
EXTT0=
EXTT1=
EXTT2=
EXTT3=
EXTT4=
EXTT5=
EXTT6=
EXTT7=
EXTT8=
PLAYORDER=
